# xmcd
#
# Track frame offsets: 
#        150
#        11854
#        31886
#        44138
#        57922
#        71891
#        91536
#        105518
#        116465
#        133066
#        149799
#        163224
#        175583
#        188993
#        207110
#        220810
#        240168
#        255890
#
# Disc length: 3599 seconds
#
# Revision: 1
# Processed by: cddbd v1.5.2PL0 Copyright (c) Steve Scherf et al.
# Submitted via: ExactAudioCopy v1.0b1
#
DISCID=fe0e0d12
DTITLE=Joe Tex - Singles As and Bs, Vol. 4, 1972-1976
DYEAR=2011
DGENRE=Soul
TTITLE0=Rain Go Away
TTITLE1=King Thaddeus
TTITLE2=Cat's Got Her Tongue
TTITLE3=Woman Stealer
TTITLE4=All The Heaven A Man Really Needs
TTITLE5=Let's Go Somewhere And Talk
TTITLE6=I've Seen Enough
TTITLE7=Trying To Win Your Love
TTITLE8=Sassy Sexy Wiggle
TTITLE9=Under Your Powerful Love
TTITLE10=I'm Goin' Back Again
TTITLE11=My Body Wants You
TTITLE12=Have You Ever
TTITLE13=Baby, It's Rainin'
TTITLE14=Love Shortage
TTITLE15=Mama Red
TTITLE16=Ain't Gonna Bump No More (With No Big Fat Woman)
TTITLE17=I Mess Up Everything I Get My Hands On
EXTD=
EXTT0=
EXTT1=
EXTT2=
EXTT3=
EXTT4=
EXTT5=
EXTT6=
EXTT7=
EXTT8=
EXTT9=
EXTT10=
EXTT11=
EXTT12=
EXTT13=
EXTT14=
EXTT15=
EXTT16=
EXTT17=
PLAYORDER=
